<svg width="52" height="52" viewBox="0 0 52 52" fill="none" xmlns="http://www.w3.org/2000/svg">
<circle cx="26" cy="26" r="26" fill="#5ECE7B"/>
<path d="M37.4736 19.8479C37.0186 19.292 36.3109 18.9541 35.5785 18.9541H20.1907L19.711 17.1664C19.4326 16.1272 18.4732 15.4023 17.3608 15.4023H14.7837C14.3544 15.4023 14 15.7402 14 16.1518C14 16.5624 14.3534 16.9012 14.7837 16.9012H17.3608C17.7398 16.9012 18.0685 17.1428 18.1692 17.5053L21.2517 29.2489C21.53 30.2881 22.4894 31.013 23.6018 31.013H33.6833C34.7947 31.013 35.7808 30.2881 36.0335 29.2489L37.9286 21.8065C38.1053 21.1288 37.9543 20.4039 37.4736 19.848L37.4736 19.8479ZM36.3879 21.4666L34.4927 28.909C34.3921 29.2715 34.0634 29.5131 33.6844 29.5131H23.6018C23.2228 29.5131 22.8941 29.2715 22.7935 28.909L20.5953 20.4767H35.5796C35.8323 20.4767 36.085 20.5975 36.237 20.791C36.388 20.9835 36.463 21.2252 36.388 21.4668L36.3879 21.4666Z" fill="white"/>
<path d="M32.8266 31.9785C31.3865 31.9785 30.1992 33.114 30.1992 34.491C30.1992 35.868 31.3866 37.0034 32.8266 37.0034C34.2666 37.0034 35.454 35.868 35.454 34.491C35.4293 33.1148 34.2666 31.9785 32.8266 31.9785ZM32.8266 35.4821C32.2452 35.4821 31.7902 35.047 31.7902 34.4911C31.7902 33.9351 32.2452 33.5 32.8266 33.5C33.408 33.5 33.863 33.9351 33.863 34.4911C33.863 35.0234 33.3823 35.4821 32.8266 35.4821Z" fill="white"/>
<path d="M24.7758 31.9785C23.3357 31.9785 22.1484 33.114 22.1484 34.491C22.1484 35.868 23.3358 37.0034 24.7758 37.0034C26.2158 37.0034 27.4032 35.868 27.4032 34.491C27.3785 33.1148 26.2158 31.9785 24.7758 31.9785ZM24.7758 35.4821C24.1945 35.4821 23.7394 35.047 23.7394 34.4911C23.7394 33.9351 24.1945 33.5 24.7758 33.5C25.3572 33.5 25.8122 33.9351 25.8122 34.4911C25.8122 35.0234 25.3316 35.4821 24.7758 35.4821Z" fill="white"/>
</svg>
