<svg width="20" height="19" viewBox="0 0 20 19" fill="none" xmlns="http://www.w3.org/2000/svg">
<path d="M19.5613 3.87359C19.1822 3.41031 18.5924 3.12873 17.9821 3.12873H5.15889L4.75914 1.63901C4.52718 0.773016 3.72769 0.168945 2.80069 0.168945H0.653099C0.295301 0.168945 0 0.450523 0 0.793474C0 1.13562 0.294459 1.418 0.653099 1.418H2.80069C3.11654 1.418 3.39045 1.61936 3.47434 1.92139L6.04306 11.7077C6.27502 12.5737 7.07451 13.1778 8.00152 13.1778H16.4028C17.3289 13.1778 18.1507 12.5737 18.3612 11.7077L19.9405 5.50575C20.0877 4.941 19.9619 4.33693 19.5613 3.87365V3.87359ZM18.6566 5.22252L17.0773 11.4245C16.9934 11.7265 16.7195 11.9279 16.4036 11.9279H8.00154C7.68569 11.9279 7.41178 11.7265 7.32789 11.4245L5.49611 4.39756H17.983C18.1936 4.39756 18.4042 4.49824 18.5308 4.65948C18.6567 4.81994 18.7192 5.0213 18.6567 5.22266L18.6566 5.22252Z" fill="#43464E"/>
<path d="M9.00003 14.0002C7.79996 14.0002 6.81055 14.9464 6.81055 16.0939C6.81055 17.2414 7.80005 18.1876 9.00003 18.1876C10.2001 18.1884 11.1895 17.2422 11.1895 16.0945C11.1895 14.9468 10.2 14 9.00003 14V14.0002ZM9.00003 16.9199C8.51556 16.9199 8.13637 16.5573 8.13637 16.094C8.13637 15.6307 8.51556 15.2681 9.00003 15.2681C9.48451 15.2681 9.8637 15.6307 9.8637 16.094C9.86288 16.5376 9.46314 16.9199 9.00003 16.9199Z" fill="#43464E"/>
<path d="M15.4986 14C14.2985 14 13.3091 14.9462 13.3091 16.0937C13.3091 17.2412 14.2986 18.1874 15.4986 18.1874C16.6986 18.1874 17.6881 17.2412 17.6881 16.0937C17.6675 14.9469 16.6986 14 15.4986 14ZM15.4986 16.9197C15.0141 16.9197 14.6349 16.5571 14.6349 16.0938C14.6349 15.6305 15.0141 15.2679 15.4986 15.2679C15.983 15.2679 16.3622 15.6305 16.3622 16.0938C16.3622 16.5374 15.9617 16.9197 15.4986 16.9197Z" fill="#43464E"/>
</svg>
